<mxfile host="Electron" agent="Mozilla/5.0 (Macintosh; Intel Mac OS X 10_15_7) AppleWebKit/537.36 (KHTML, like Gecko) draw.io/28.2.8 Chrome/140.0.7339.240 Electron/38.4.0 Safari/537.36" version="28.2.8">
  <diagram name="Page-1" id="q5PfeUawH94sXjjb3W2x">
    <mxGraphModel dx="809" dy="486" grid="1" gridSize="10" guides="1" tooltips="1" connect="1" arrows="1" fold="1" page="1" pageScale="1" pageWidth="827" pageHeight="1169" math="0" shadow="0">
      <root>
        <mxCell id="0" />
        <mxCell id="1" parent="0" />
        <mxCell id="MU3d0rv38lfzgXN83n9I-20" value="" style="group" vertex="1" connectable="0" parent="1">
          <mxGeometry x="465" y="70" width="180" height="320" as="geometry" />
        </mxCell>
        <mxCell id="MU3d0rv38lfzgXN83n9I-7" value="" style="rounded=0;whiteSpace=wrap;html=1;fillColor=#6d8764;fontColor=#ffffff;strokeColor=#3A5431;" vertex="1" parent="MU3d0rv38lfzgXN83n9I-20">
          <mxGeometry width="180" height="320" as="geometry" />
        </mxCell>
        <mxCell id="MU3d0rv38lfzgXN83n9I-8" value="Compilateur SQL" style="text;html=1;whiteSpace=wrap;strokeColor=none;fillColor=none;align=center;verticalAlign=middle;rounded=0;" vertex="1" parent="MU3d0rv38lfzgXN83n9I-20">
          <mxGeometry x="6" y="2.1333333333333333" width="60" height="32" as="geometry" />
        </mxCell>
        <mxCell id="MU3d0rv38lfzgXN83n9I-11" value="Code Generator" style="rounded=0;whiteSpace=wrap;html=1;" vertex="1" parent="MU3d0rv38lfzgXN83n9I-20">
          <mxGeometry x="30" y="220" width="120" height="60" as="geometry" />
        </mxCell>
        <mxCell id="MU3d0rv38lfzgXN83n9I-10" value="Parser" style="rounded=0;whiteSpace=wrap;html=1;" vertex="1" parent="MU3d0rv38lfzgXN83n9I-20">
          <mxGeometry x="30" y="130" width="120" height="60" as="geometry" />
        </mxCell>
        <mxCell id="MU3d0rv38lfzgXN83n9I-14" style="edgeStyle=orthogonalEdgeStyle;rounded=0;orthogonalLoop=1;jettySize=auto;html=1;entryX=0.5;entryY=0;entryDx=0;entryDy=0;" edge="1" parent="MU3d0rv38lfzgXN83n9I-20" source="MU3d0rv38lfzgXN83n9I-10" target="MU3d0rv38lfzgXN83n9I-11">
          <mxGeometry relative="1" as="geometry" />
        </mxCell>
        <mxCell id="MU3d0rv38lfzgXN83n9I-1" style="edgeStyle=orthogonalEdgeStyle;rounded=0;orthogonalLoop=1;jettySize=auto;html=1;entryX=0.5;entryY=0;entryDx=0;entryDy=0;" edge="1" parent="1" source="MU3d0rv38lfzgXN83n9I-3" target="MU3d0rv38lfzgXN83n9I-6">
          <mxGeometry relative="1" as="geometry" />
        </mxCell>
        <mxCell id="MU3d0rv38lfzgXN83n9I-2" value="écrit dans..." style="edgeLabel;html=1;align=center;verticalAlign=middle;resizable=0;points=[];" vertex="1" connectable="0" parent="MU3d0rv38lfzgXN83n9I-1">
          <mxGeometry x="-0.1829" y="2" relative="1" as="geometry">
            <mxPoint as="offset" />
          </mxGeometry>
        </mxCell>
        <mxCell id="MU3d0rv38lfzgXN83n9I-3" value="REPL" style="rounded=0;whiteSpace=wrap;html=1;" vertex="1" parent="1">
          <mxGeometry x="205" y="60" width="120" height="60" as="geometry" />
        </mxCell>
        <mxCell id="MU3d0rv38lfzgXN83n9I-4" value="" style="edgeStyle=orthogonalEdgeStyle;rounded=0;orthogonalLoop=1;jettySize=auto;html=1;" edge="1" parent="1" source="MU3d0rv38lfzgXN83n9I-5" target="MU3d0rv38lfzgXN83n9I-3">
          <mxGeometry relative="1" as="geometry" />
        </mxCell>
        <mxCell id="MU3d0rv38lfzgXN83n9I-5" value="User" style="shape=umlActor;verticalLabelPosition=bottom;verticalAlign=top;html=1;outlineConnect=0;" vertex="1" parent="1">
          <mxGeometry x="90" y="60" width="30" height="60" as="geometry" />
        </mxCell>
        <mxCell id="MU3d0rv38lfzgXN83n9I-12" value="Requête utilisateur" style="rounded=0;orthogonalLoop=1;jettySize=auto;html=1;entryX=0;entryY=0.5;entryDx=0;entryDy=0;exitX=1;exitY=0.25;exitDx=0;exitDy=0;" edge="1" parent="1">
          <mxGeometry x="-0.1093" y="2" relative="1" as="geometry">
            <mxPoint x="325" y="214.9999999999999" as="sourcePoint" />
            <mxPoint x="495" y="140.0000000000001" as="targetPoint" />
            <mxPoint as="offset" />
          </mxGeometry>
        </mxCell>
        <mxCell id="MU3d0rv38lfzgXN83n9I-18" style="edgeStyle=orthogonalEdgeStyle;rounded=0;orthogonalLoop=1;jettySize=auto;html=1;entryX=0.5;entryY=0;entryDx=0;entryDy=0;" edge="1" parent="1" source="MU3d0rv38lfzgXN83n9I-6" target="MU3d0rv38lfzgXN83n9I-16">
          <mxGeometry relative="1" as="geometry" />
        </mxCell>
        <mxCell id="MU3d0rv38lfzgXN83n9I-6" value="Buffer&lt;div&gt;(Command processor)&lt;/div&gt;" style="rounded=0;whiteSpace=wrap;html=1;" vertex="1" parent="1">
          <mxGeometry x="192.5" y="200" width="145" height="60" as="geometry" />
        </mxCell>
        <mxCell id="MU3d0rv38lfzgXN83n9I-13" style="edgeStyle=orthogonalEdgeStyle;rounded=0;orthogonalLoop=1;jettySize=auto;html=1;entryX=0.5;entryY=0;entryDx=0;entryDy=0;" edge="1" parent="1" source="MU3d0rv38lfzgXN83n9I-9" target="MU3d0rv38lfzgXN83n9I-10">
          <mxGeometry relative="1" as="geometry" />
        </mxCell>
        <mxCell id="MU3d0rv38lfzgXN83n9I-9" value="Tokenizer" style="rounded=0;whiteSpace=wrap;html=1;" vertex="1" parent="1">
          <mxGeometry x="495" y="110" width="120" height="60" as="geometry" />
        </mxCell>
        <mxCell id="MU3d0rv38lfzgXN83n9I-21" value="&lt;span style=&quot;background-color: rgb(181, 115, 157);&quot;&gt;Potentielles erreurs de parsing de la requête&lt;/span&gt;&lt;div&gt;&lt;span style=&quot;background-color: rgb(181, 115, 157);&quot;&gt;(idéalement avec indications sur l&#39;endroit qui plante)&lt;/span&gt;&lt;/div&gt;" style="rounded=0;orthogonalLoop=1;jettySize=auto;html=1;dashed=1;dashPattern=8 8;fillColor=#fa6800;strokeColor=#C73500;exitX=1;exitY=0.5;exitDx=0;exitDy=0;entryX=0.5;entryY=0;entryDx=0;entryDy=0;edgeStyle=orthogonalEdgeStyle;" edge="1" parent="1" source="MU3d0rv38lfzgXN83n9I-10" target="MU3d0rv38lfzgXN83n9I-3">
          <mxGeometry x="0.1819" relative="1" as="geometry">
            <mxPoint x="220" y="30" as="targetPoint" />
            <Array as="points">
              <mxPoint x="720" y="230" />
              <mxPoint x="720" y="40" />
              <mxPoint x="265" y="40" />
            </Array>
            <mxPoint as="offset" />
          </mxGeometry>
        </mxCell>
        <mxCell id="MU3d0rv38lfzgXN83n9I-15" style="rounded=0;orthogonalLoop=1;jettySize=auto;html=1;entryX=1;entryY=0.75;entryDx=0;entryDy=0;" edge="1" parent="1" source="MU3d0rv38lfzgXN83n9I-11" target="MU3d0rv38lfzgXN83n9I-6">
          <mxGeometry relative="1" as="geometry" />
        </mxCell>
        <mxCell id="MU3d0rv38lfzgXN83n9I-25" value="Code machine pour&lt;div&gt;exécuter la requête&lt;/div&gt;" style="edgeLabel;html=1;align=center;verticalAlign=middle;resizable=0;points=[];" vertex="1" connectable="0" parent="MU3d0rv38lfzgXN83n9I-15">
          <mxGeometry x="-0.0893" relative="1" as="geometry">
            <mxPoint x="-18" y="-5" as="offset" />
          </mxGeometry>
        </mxCell>
        <mxCell id="MU3d0rv38lfzgXN83n9I-19" value="" style="group" vertex="1" connectable="0" parent="1">
          <mxGeometry x="155" y="340" width="220" height="140" as="geometry" />
        </mxCell>
        <mxCell id="MU3d0rv38lfzgXN83n9I-16" value="TODO" style="rounded=0;whiteSpace=wrap;html=1;fillColor=#647687;fontColor=#ffffff;strokeColor=#314354;" vertex="1" parent="MU3d0rv38lfzgXN83n9I-19">
          <mxGeometry width="220" height="140" as="geometry" />
        </mxCell>
        <mxCell id="MU3d0rv38lfzgXN83n9I-17" value="Machine virtuelle" style="text;html=1;whiteSpace=wrap;strokeColor=none;fillColor=none;align=center;verticalAlign=middle;rounded=0;" vertex="1" parent="MU3d0rv38lfzgXN83n9I-19">
          <mxGeometry width="60" height="30" as="geometry" />
        </mxCell>
      </root>
    </mxGraphModel>
  </diagram>
</mxfile>
